<?xml version="1.0" encoding="UTF-8"?>
<svg xmlns="http://www.w3.org/2000/svg" xmlns:xlink="http://www.w3.org/1999/xlink" width="3873" height="3873" viewBox="0 0 3873 3873">
<defs>
<clipPath id="clip-0">
<path clip-rule="evenodd" d="M 1936.5 0 C 3006 0 3873 867 3873 1936.5 C 3873 3006 3006 3873 1936.5 3873 C 867 3873 0 3006 0 1936.5 C 0 867 867 0 1936.5 0 "/>
</clipPath>
<radialGradient id="radial-pattern-0" gradientUnits="userSpaceOnUse" cx="0" cy="0" fx="0" fy="0" r="1549.19" gradientTransform="matrix(1, 0, 0, 1, 1936.5, 1936.5)">
<stop offset="0" stop-color="rgb(33.201599%, 33.201599%, 33.201599%)" stop-opacity="1"/>
<stop offset="0.0078125" stop-color="rgb(32.876587%, 32.876587%, 32.876587%)" stop-opacity="1"/>
<stop offset="0.0195312" stop-color="rgb(32.485962%, 32.485962%, 32.485962%)" stop-opacity="1"/>
<stop offset="0.03125" stop-color="rgb(32.095337%, 32.095337%, 32.095337%)" stop-opacity="1"/>
<stop offset="0.0429688" stop-color="rgb(31.704712%, 31.704712%, 31.704712%)" stop-opacity="1"/>
<stop offset="0.0546875" stop-color="rgb(31.314087%, 31.314087%, 31.314087%)" stop-opacity="1"/>
<stop offset="0.0664062" stop-color="rgb(30.923462%, 30.923462%, 30.923462%)" stop-opacity="1"/>
<stop offset="0.078125" stop-color="rgb(30.532837%, 30.532837%, 30.532837%)" stop-opacity="1"/>
<stop offset="0.0898438" stop-color="rgb(30.142212%, 30.142212%, 30.142212%)" stop-opacity="1"/>
<stop offset="0.101562" stop-color="rgb(29.751587%, 29.751587%, 29.751587%)" stop-opacity="1"/>
<stop offset="0.113281" stop-color="rgb(29.360962%, 29.360962%, 29.360962%)" stop-opacity="1"/>
<stop offset="0.125" stop-color="rgb(28.970337%, 28.970337%, 28.970337%)" stop-opacity="1"/>
<stop offset="0.136719" stop-color="rgb(28.579712%, 28.579712%, 28.579712%)" stop-opacity="1"/>
<stop offset="0.148438" stop-color="rgb(28.189087%, 28.189087%, 28.189087%)" stop-opacity="1"/>
<stop offset="0.160156" stop-color="rgb(27.798462%, 27.798462%, 27.798462%)" stop-opacity="1"/>
<stop offset="0.171875" stop-color="rgb(27.407837%, 27.407837%, 27.407837%)" stop-opacity="1"/>
<stop offset="0.183594" stop-color="rgb(27.017212%, 27.017212%, 27.017212%)" stop-opacity="1"/>
<stop offset="0.195312" stop-color="rgb(26.626587%, 26.626587%, 26.626587%)" stop-opacity="1"/>
<stop offset="0.207031" stop-color="rgb(26.235962%, 26.235962%, 26.235962%)" stop-opacity="1"/>
<stop offset="0.21875" stop-color="rgb(25.845337%, 25.845337%, 25.845337%)" stop-opacity="1"/>
<stop offset="0.230469" stop-color="rgb(25.454712%, 25.454712%, 25.454712%)" stop-opacity="1"/>
<stop offset="0.242188" stop-color="rgb(25.064087%, 25.064087%, 25.064087%)" stop-opacity="1"/>
<stop offset="0.253906" stop-color="rgb(24.737549%, 24.737549%, 24.737549%)" stop-opacity="1"/>
<stop offset="0.261719" stop-color="rgb(24.478149%, 24.478149%, 24.478149%)" stop-opacity="1"/>
<stop offset="0.269531" stop-color="rgb(24.217224%, 24.217224%, 24.217224%)" stop-opacity="1"/>
<stop offset="0.277344" stop-color="rgb(23.956299%, 23.956299%, 23.956299%)" stop-opacity="1"/>
<stop offset="0.285156" stop-color="rgb(23.696899%, 23.696899%, 23.696899%)" stop-opacity="1"/>
<stop offset="0.292969" stop-color="rgb(23.435974%, 23.435974%, 23.435974%)" stop-opacity="1"/>
<stop offset="0.300781" stop-color="rgb(23.175049%, 23.175049%, 23.175049%)" stop-opacity="1"/>
<stop offset="0.308594" stop-color="rgb(22.915649%, 22.915649%, 22.915649%)" stop-opacity="1"/>
<stop offset="0.316406" stop-color="rgb(22.654724%, 22.654724%, 22.654724%)" stop-opacity="1"/>
<stop offset="0.324219" stop-color="rgb(22.393799%, 22.393799%, 22.393799%)" stop-opacity="1"/>
<stop offset="0.332031" stop-color="rgb(22.134399%, 22.134399%, 22.134399%)" stop-opacity="1"/>
<stop offset="0.339844" stop-color="rgb(21.873474%, 21.873474%, 21.873474%)" stop-opacity="1"/>
<stop offset="0.347656" stop-color="rgb(21.612549%, 21.612549%, 21.612549%)" stop-opacity="1"/>
<stop offset="0.355469" stop-color="rgb(21.353149%, 21.353149%, 21.353149%)" stop-opacity="1"/>
<stop offset="0.363281" stop-color="rgb(21.092224%, 21.092224%, 21.092224%)" stop-opacity="1"/>
<stop offset="0.371094" stop-color="rgb(20.831299%, 20.831299%, 20.831299%)" stop-opacity="1"/>
<stop offset="0.378906" stop-color="rgb(20.571899%, 20.571899%, 20.571899%)" stop-opacity="1"/>
<stop offset="0.386719" stop-color="rgb(20.310974%, 20.310974%, 20.310974%)" stop-opacity="1"/>
<stop offset="0.394531" stop-color="rgb(20.050049%, 20.050049%, 20.050049%)" stop-opacity="1"/>
<stop offset="0.402344" stop-color="rgb(19.790649%, 19.790649%, 19.790649%)" stop-opacity="1"/>
<stop offset="0.410156" stop-color="rgb(19.529724%, 19.529724%, 19.529724%)" stop-opacity="1"/>
<stop offset="0.417969" stop-color="rgb(19.268799%, 19.268799%, 19.268799%)" stop-opacity="1"/>
<stop offset="0.425781" stop-color="rgb(19.009399%, 19.009399%, 19.009399%)" stop-opacity="1"/>
<stop offset="0.433594" stop-color="rgb(18.748474%, 18.748474%, 18.748474%)" stop-opacity="1"/>
<stop offset="0.441406" stop-color="rgb(18.487549%, 18.487549%, 18.487549%)" stop-opacity="1"/>
<stop offset="0.449219" stop-color="rgb(18.228149%, 18.228149%, 18.228149%)" stop-opacity="1"/>
<stop offset="0.457031" stop-color="rgb(17.967224%, 17.967224%, 17.967224%)" stop-opacity="1"/>
<stop offset="0.464844" stop-color="rgb(17.706299%, 17.706299%, 17.706299%)" stop-opacity="1"/>
<stop offset="0.472656" stop-color="rgb(17.446899%, 17.446899%, 17.446899%)" stop-opacity="1"/>
<stop offset="0.480469" stop-color="rgb(17.185974%, 17.185974%, 17.185974%)" stop-opacity="1"/>
<stop offset="0.488281" stop-color="rgb(16.925049%, 16.925049%, 16.925049%)" stop-opacity="1"/>
<stop offset="0.496094" stop-color="rgb(16.665649%, 16.665649%, 16.665649%)" stop-opacity="1"/>
<stop offset="0.503906" stop-color="rgb(16.340637%, 16.340637%, 16.340637%)" stop-opacity="1"/>
<stop offset="0.515625" stop-color="rgb(15.950012%, 15.950012%, 15.950012%)" stop-opacity="1"/>
<stop offset="0.527344" stop-color="rgb(15.559387%, 15.559387%, 15.559387%)" stop-opacity="1"/>
<stop offset="0.539062" stop-color="rgb(15.168762%, 15.168762%, 15.168762%)" stop-opacity="1"/>
<stop offset="0.550781" stop-color="rgb(14.778137%, 14.778137%, 14.778137%)" stop-opacity="1"/>
<stop offset="0.5625" stop-color="rgb(14.387512%, 14.387512%, 14.387512%)" stop-opacity="1"/>
<stop offset="0.574219" stop-color="rgb(13.996887%, 13.996887%, 13.996887%)" stop-opacity="1"/>
<stop offset="0.585938" stop-color="rgb(13.606262%, 13.606262%, 13.606262%)" stop-opacity="1"/>
<stop offset="0.597656" stop-color="rgb(13.215637%, 13.215637%, 13.215637%)" stop-opacity="1"/>
<stop offset="0.609375" stop-color="rgb(12.825012%, 12.825012%, 12.825012%)" stop-opacity="1"/>
<stop offset="0.621094" stop-color="rgb(12.434387%, 12.434387%, 12.434387%)" stop-opacity="1"/>
<stop offset="0.632812" stop-color="rgb(12.107849%, 12.107849%, 12.107849%)" stop-opacity="1"/>
<stop offset="0.640625" stop-color="rgb(11.846924%, 11.846924%, 11.846924%)" stop-opacity="1"/>
<stop offset="0.648438" stop-color="rgb(11.587524%, 11.587524%, 11.587524%)" stop-opacity="1"/>
<stop offset="0.65625" stop-color="rgb(11.326599%, 11.326599%, 11.326599%)" stop-opacity="1"/>
<stop offset="0.664062" stop-color="rgb(11.065674%, 11.065674%, 11.065674%)" stop-opacity="1"/>
<stop offset="0.671875" stop-color="rgb(10.806274%, 10.806274%, 10.806274%)" stop-opacity="1"/>
<stop offset="0.679688" stop-color="rgb(10.545349%, 10.545349%, 10.545349%)" stop-opacity="1"/>
<stop offset="0.6875" stop-color="rgb(10.284424%, 10.284424%, 10.284424%)" stop-opacity="1"/>
<stop offset="0.695312" stop-color="rgb(10.025024%, 10.025024%, 10.025024%)" stop-opacity="1"/>
<stop offset="0.703125" stop-color="rgb(9.764099%, 9.764099%, 9.764099%)" stop-opacity="1"/>
<stop offset="0.710938" stop-color="rgb(9.503174%, 9.503174%, 9.503174%)" stop-opacity="1"/>
<stop offset="0.71875" stop-color="rgb(9.243774%, 9.243774%, 9.243774%)" stop-opacity="1"/>
<stop offset="0.726562" stop-color="rgb(8.982849%, 8.982849%, 8.982849%)" stop-opacity="1"/>
<stop offset="0.734375" stop-color="rgb(8.721924%, 8.721924%, 8.721924%)" stop-opacity="1"/>
<stop offset="0.742188" stop-color="rgb(8.462524%, 8.462524%, 8.462524%)" stop-opacity="1"/>
<stop offset="0.75" stop-color="rgb(8.201599%, 8.201599%, 8.201599%)" stop-opacity="1"/>
<stop offset="0.757812" stop-color="rgb(7.876587%, 7.876587%, 7.876587%)" stop-opacity="1"/>
<stop offset="0.769531" stop-color="rgb(7.485962%, 7.485962%, 7.485962%)" stop-opacity="1"/>
<stop offset="0.78125" stop-color="rgb(7.095337%, 7.095337%, 7.095337%)" stop-opacity="1"/>
<stop offset="0.792969" stop-color="rgb(6.704712%, 6.704712%, 6.704712%)" stop-opacity="1"/>
<stop offset="0.804688" stop-color="rgb(6.314087%, 6.314087%, 6.314087%)" stop-opacity="1"/>
<stop offset="0.816406" stop-color="rgb(5.987549%, 5.987549%, 5.987549%)" stop-opacity="1"/>
<stop offset="0.824219" stop-color="rgb(5.728149%, 5.728149%, 5.728149%)" stop-opacity="1"/>
<stop offset="0.832031" stop-color="rgb(5.467224%, 5.467224%, 5.467224%)" stop-opacity="1"/>
<stop offset="0.839844" stop-color="rgb(5.206299%, 5.206299%, 5.206299%)" stop-opacity="1"/>
<stop offset="0.847656" stop-color="rgb(4.946899%, 4.946899%, 4.946899%)" stop-opacity="1"/>
<stop offset="0.855469" stop-color="rgb(4.685974%, 4.685974%, 4.685974%)" stop-opacity="1"/>
<stop offset="0.863281" stop-color="rgb(4.425049%, 4.425049%, 4.425049%)" stop-opacity="1"/>
<stop offset="0.871094" stop-color="rgb(4.165649%, 4.165649%, 4.165649%)" stop-opacity="1"/>
<stop offset="0.878906" stop-color="rgb(3.840637%, 3.840637%, 3.840637%)" stop-opacity="1"/>
<stop offset="0.890625" stop-color="rgb(3.450012%, 3.450012%, 3.450012%)" stop-opacity="1"/>
<stop offset="0.902344" stop-color="rgb(3.059387%, 3.059387%, 3.059387%)" stop-opacity="1"/>
<stop offset="0.914062" stop-color="rgb(2.732849%, 2.732849%, 2.732849%)" stop-opacity="1"/>
<stop offset="0.921875" stop-color="rgb(2.471924%, 2.471924%, 2.471924%)" stop-opacity="1"/>
<stop offset="0.929688" stop-color="rgb(2.212524%, 2.212524%, 2.212524%)" stop-opacity="1"/>
<stop offset="0.9375" stop-color="rgb(1.951599%, 1.951599%, 1.951599%)" stop-opacity="1"/>
<stop offset="0.945312" stop-color="rgb(1.626587%, 1.626587%, 1.626587%)" stop-opacity="1"/>
<stop offset="0.957031" stop-color="rgb(1.300049%, 1.300049%, 1.300049%)" stop-opacity="1"/>
<stop offset="0.964844" stop-color="rgb(1.040649%, 1.040649%, 1.040649%)" stop-opacity="1"/>
<stop offset="0.972656" stop-color="rgb(0.715637%, 0.715637%, 0.715637%)" stop-opacity="1"/>
<stop offset="0.984375" stop-color="rgb(0.389099%, 0.389099%, 0.389099%)" stop-opacity="1"/>
<stop offset="0.992188" stop-color="rgb(0.1297%, 0.1297%, 0.1297%)" stop-opacity="1"/>
<stop offset="1" stop-color="rgb(0%, 0%, 0%)" stop-opacity="1"/>
</radialGradient>
</defs>
<g clip-path="url(#clip-0)">

</g>
<path fill-rule="evenodd" fill="rgb(100%, 100%, 99.609375%)" fill-opacity="1" d="M 1101.398438 2771.800781 L 2902.898438 2771.800781 C 2935.199219 2771.800781 2961.199219 2797.800781 2961.199219 2830.101562 C 2961.199219 2862.398438 2935.199219 2888.398438 2902.898438 2888.398438 L 1043 2888.398438 C 1010.699219 2888.398438 984.699219 2862.398438 984.699219 2830.101562 L 984.699219 970.300781 C 984.699219 938 1010.699219 912 1043 912 C 1075.300781 912 1101.300781 938 1101.300781 970.300781 L 1101.300781 2771.800781 L 1101.398438 2771.800781 "/>
<path fill-rule="evenodd" fill="rgb(100%, 100%, 99.609375%)" fill-opacity="1" d="M 2271.300781 1759.5 Z M 2204.101562 1817.398438 L 2262 1817.398438 L 2262 1759.5 L 2204.101562 1759.5 Z M 2271.300781 1875.699219 L 2195.101562 1875.699219 C 2168 1875.699219 2145.699219 1853.398438 2145.699219 1826.300781 L 2145.699219 1750.101562 C 2145.699219 1723 2168 1700.699219 2195.101562 1700.699219 L 2271.300781 1700.699219 C 2298.398438 1700.699219 2320.699219 1723 2320.699219 1750.101562 L 2320.699219 1826.300781 C 2320.699219 1853.898438 2298.5 1875.699219 2271.300781 1875.699219 Z M 2508.699219 1759.5 Z M 2441.5 1817.398438 L 2499.398438 1817.398438 L 2499.398438 1759.5 L 2441.5 1759.5 Z M 2508.699219 1875.699219 L 2432.5 1875.699219 C 2405.398438 1875.699219 2383.101562 1853.398438 2383.101562 1826.300781 L 2383.101562 1750.101562 C 2383.101562 1723 2405.398438 1700.699219 2432.5 1700.699219 L 2508.699219 1700.699219 C 2535.800781 1700.699219 2558.101562 1723 2558.101562 1750.101562 L 2558.101562 1826.300781 C 2557.699219 1853.898438 2535.898438 1875.699219 2508.699219 1875.699219 Z M 2271.300781 1982.699219 Z M 2204.101562 2040.601562 L 2262 2040.601562 L 2262 1982.699219 L 2204.101562 1982.699219 Z M 2271.300781 2098.898438 L 2195.101562 2098.898438 C 2168 2098.898438 2145.699219 2076.601562 2145.699219 2049.5 L 2145.699219 1973.300781 C 2145.699219 1946.199219 2168 1923.898438 2195.101562 1923.898438 L 2271.300781 1923.898438 C 2298.398438 1923.898438 2320.699219 1946.199219 2320.699219 1973.300781 L 2320.699219 2049.5 C 2320.699219 2077.101562 2298.5 2098.898438 2271.300781 2098.898438 Z M 2508.699219 1982.699219 Z M 2441.5 2040.601562 L 2499.398438 2040.601562 L 2499.398438 1982.699219 L 2441.5 1982.699219 Z M 2508.699219 2098.898438 L 2432.5 2098.898438 C 2405.398438 2098.898438 2383.101562 2076.601562 2383.101562 2049.5 L 2383.101562 1973.300781 C 2383.101562 1946.199219 2405.398438 1923.898438 2432.5 1923.898438 L 2508.699219 1923.898438 C 2535.800781 1923.898438 2558.101562 1946.199219 2558.101562 1973.300781 L 2558.101562 2049.5 C 2557.699219 2077.101562 2535.898438 2098.898438 2508.699219 2098.898438 Z M 2351.898438 2262.199219 C 2152.199219 2262.199219 1989.699219 2099.800781 1989.699219 1900 C 1989.699219 1700.300781 2152.101562 1537.800781 2351.898438 1537.800781 C 2551.601562 1537.800781 2714.101562 1700.199219 2714.101562 1900 C 2714.101562 2099.800781 2551.699219 2262.199219 2351.898438 2262.199219 "/>
<path fill-rule="evenodd" fill="rgb(100%, 100%, 99.609375%)" fill-opacity="1" d="M 1478.5 1281.800781 C 1462.300781 1281.800781 1449.300781 1294.800781 1449.300781 1311 C 1449.300781 1327.199219 1462.300781 1340.199219 1478.5 1340.199219 C 1494.699219 1340.199219 1507.699219 1327.199219 1507.699219 1311 C 1507.699219 1294.800781 1494.699219 1281.800781 1478.5 1281.800781 Z M 1478.5 1398.898438 C 1430.300781 1398.898438 1391 1359.601562 1391 1311.398438 C 1391 1263.199219 1430.300781 1223.898438 1478.5 1223.898438 C 1526.699219 1223.898438 1566 1263.199219 1566 1311.398438 C 1566 1359.601562 1526.699219 1398.898438 1478.5 1398.898438 Z M 1709.398438 1281.800781 C 1693.199219 1281.800781 1680.199219 1294.800781 1680.199219 1311 C 1680.199219 1327.199219 1693.199219 1340.199219 1709.398438 1340.199219 C 1725.601562 1340.199219 1738.601562 1327.199219 1738.601562 1311 C 1738.601562 1294.800781 1725.601562 1281.800781 1709.398438 1281.800781 Z M 1709.398438 1398.898438 C 1661.199219 1398.898438 1621.898438 1359.601562 1621.898438 1311.398438 C 1621.898438 1263.199219 1661.199219 1223.898438 1709.398438 1223.898438 C 1757.601562 1223.898438 1796.898438 1263.199219 1796.898438 1311.398438 C 1796.898438 1359.601562 1758 1398.898438 1709.398438 1398.898438 Z M 1478.5 1512.699219 C 1462.300781 1512.699219 1449.300781 1525.699219 1449.300781 1541.898438 C 1449.300781 1558.101562 1462.300781 1571.101562 1478.5 1571.101562 C 1494.699219 1571.101562 1507.699219 1558.101562 1507.699219 1541.898438 C 1507.699219 1525.699219 1494.699219 1512.699219 1478.5 1512.699219 Z M 1478.5 1629.398438 C 1430.300781 1629.398438 1391 1590.101562 1391 1541.898438 C 1391 1493.699219 1430.300781 1454.398438 1478.5 1454.398438 C 1526.699219 1454.398438 1566 1493.699219 1566 1541.898438 C 1566 1590.101562 1526.699219 1629.398438 1478.5 1629.398438 Z M 1709.398438 1512.699219 C 1693.199219 1512.699219 1680.199219 1525.699219 1680.199219 1541.898438 C 1680.199219 1558.101562 1693.199219 1571.101562 1709.398438 1571.101562 C 1725.601562 1571.101562 1738.601562 1558.101562 1738.601562 1541.898438 C 1738.601562 1525.699219 1725.601562 1512.699219 1709.398438 1512.699219 Z M 1709.398438 1629.398438 C 1661.199219 1629.398438 1621.898438 1590.101562 1621.898438 1541.898438 C 1621.898438 1493.699219 1661.199219 1454.398438 1709.398438 1454.398438 C 1757.601562 1454.398438 1796.898438 1493.699219 1796.898438 1541.898438 C 1796.898438 1590.101562 1758 1629.398438 1709.398438 1629.398438 Z M 1594 1788.601562 C 1394.300781 1788.601562 1231.800781 1626.199219 1231.800781 1426.398438 C 1231.800781 1226.699219 1394.199219 1064.199219 1594 1064.199219 C 1793.699219 1064.199219 1956.199219 1226.601562 1956.199219 1426.398438 C 1956.101562 1626.199219 1793.699219 1788.601562 1594 1788.601562 "/>
<path fill-rule="evenodd" fill="rgb(100%, 100%, 99.609375%)" fill-opacity="1" d="M 1638.898438 2220.101562 Z M 1548.199219 2211.199219 L 1589.101562 2252.101562 L 1630 2211.199219 L 1589.101562 2170.300781 Z M 1589.101562 2315.699219 C 1576.898438 2315.699219 1565.199219 2310.800781 1556.699219 2302.300781 L 1498 2243.601562 C 1480.199219 2225.800781 1480.199219 2196.601562 1498 2178.800781 L 1556.699219 2120.101562 C 1565.199219 2111.601562 1577 2106.699219 1589.101562 2106.699219 C 1601.300781 2106.699219 1613 2111.601562 1621.5 2120.101562 L 1680.199219 2178.800781 C 1698 2196.601562 1698 2225.800781 1680.199219 2243.601562 L 1621.5 2302.300781 C 1613 2310.800781 1601.300781 2315.699219 1589.101562 2315.699219 Z M 1806.699219 2387.800781 Z M 1715.898438 2378.898438 L 1756.800781 2419.800781 L 1797.699219 2378.898438 L 1756.800781 2338 Z M 1756.800781 2483.398438 C 1744.601562 2483.398438 1732.898438 2478.5 1724.398438 2470 L 1665.699219 2411.300781 C 1647.898438 2393.5 1647.898438 2364.300781 1665.699219 2346.5 L 1724.398438 2287.800781 C 1732.898438 2279.300781 1744.699219 2274.398438 1756.800781 2274.398438 C 1769 2274.398438 1780.699219 2279.300781 1789.199219 2287.800781 L 1847.898438 2346.5 C 1865.699219 2364.300781 1865.699219 2393.5 1847.898438 2411.300781 L 1789.199219 2470 C 1780.699219 2478.5 1769 2483.398438 1756.800781 2483.398438 Z M 1390.199219 2368.699219 L 1431.101562 2409.601562 L 1472 2368.699219 L 1431.101562 2327.800781 Z M 1431.101562 2473.699219 C 1419.398438 2473.699219 1407.601562 2469.199219 1398.699219 2460.300781 L 1340 2401.601562 C 1331.5 2393.101562 1326.601562 2381.300781 1326.601562 2369.199219 C 1326.601562 2357 1331.5 2345.300781 1340 2336.800781 L 1398.699219 2278.101562 C 1416.5 2260.300781 1445.699219 2260.300781 1463.5 2278.101562 L 1522.199219 2336.800781 C 1530.699219 2345.300781 1535.601562 2357.101562 1535.601562 2369.199219 C 1535.601562 2381.398438 1530.699219 2393.101562 1522.199219 2401.601562 L 1463.5 2460.300781 C 1454.601562 2469.199219 1442.898438 2473.699219 1431.101562 2473.699219 Z M 1649.101562 2545.398438 Z M 1557.898438 2536.5 L 1598.800781 2577.398438 L 1639.699219 2536.5 L 1598.800781 2495.601562 Z M 1598.800781 2641.398438 C 1586.601562 2641.398438 1574.898438 2636.5 1566.398438 2628 L 1507.699219 2569.300781 C 1489.898438 2551.5 1489.898438 2522.300781 1507.699219 2504.5 L 1566.398438 2445.800781 C 1574.898438 2437.300781 1586.699219 2432.398438 1598.800781 2432.398438 C 1611 2432.398438 1622.699219 2437.300781 1631.199219 2445.800781 L 1689.898438 2504.5 C 1707.699219 2522.300781 1707.699219 2551.5 1689.898438 2569.300781 L 1631.199219 2628 C 1622.699219 2636.5 1611.398438 2641.398438 1598.800781 2641.398438 Z M 1594 2735.800781 C 1394.300781 2735.800781 1231.800781 2573.398438 1231.800781 2373.601562 C 1231.800781 2173.898438 1394.199219 2011.398438 1594 2011.398438 C 1793.699219 2011.398438 1956.199219 2173.800781 1956.199219 2373.601562 C 1956.101562 2573.300781 1793.699219 2735.800781 1594 2735.800781 "/>
<path fill-rule="evenodd" fill="rgb(100%, 100%, 99.609375%)" fill-opacity="1" d="M 1043 2716.300781 L 970.101562 2716.300781 C 937.800781 2716.300781 911.800781 2690.300781 911.800781 2658 C 911.800781 2625.699219 937.800781 2599.699219 970.101562 2599.699219 L 1043 2599.699219 C 1075.300781 2599.699219 1101.300781 2625.699219 1101.300781 2658 C 1101.398438 2690.300781 1075.300781 2716.300781 1043 2716.300781 Z M 1043 2463.5 L 970.101562 2463.5 C 937.800781 2463.5 911.800781 2437.5 911.800781 2405.199219 C 911.800781 2372.898438 937.800781 2346.898438 970.101562 2346.898438 L 1043 2346.898438 C 1075.300781 2346.898438 1101.300781 2372.898438 1101.300781 2405.199219 C 1101.398438 2437.5 1075.300781 2463.5 1043 2463.5 Z M 1043 2211.199219 L 970.101562 2211.199219 C 937.800781 2211.199219 911.800781 2185.199219 911.800781 2152.898438 C 911.800781 2120.601562 937.800781 2094.601562 970.101562 2094.601562 L 1043 2094.601562 C 1075.300781 2094.601562 1101.300781 2120.601562 1101.300781 2152.898438 C 1101.398438 2185.101562 1075.300781 2211.199219 1043 2211.199219 Z M 1043 1958.398438 L 970.101562 1958.398438 C 937.800781 1958.398438 911.800781 1932.398438 911.800781 1900.101562 C 911.800781 1867.800781 937.800781 1841.800781 970.101562 1841.800781 L 1043 1841.800781 C 1075.300781 1841.800781 1101.300781 1867.800781 1101.300781 1900.101562 C 1101.398438 1932.300781 1075.300781 1958.398438 1043 1958.398438 Z M 1043 1706 L 970.101562 1706 C 937.800781 1706 911.800781 1680 911.800781 1647.699219 C 911.800781 1615.398438 937.800781 1589.398438 970.101562 1589.398438 L 1043 1589.398438 C 1075.300781 1589.398438 1101.300781 1615.398438 1101.300781 1647.699219 C 1101.398438 1680 1075.300781 1706 1043 1706 Z M 1043 1453.199219 L 970.101562 1453.199219 C 937.800781 1453.199219 911.800781 1427.199219 911.800781 1394.898438 C 911.800781 1362.601562 937.800781 1336.601562 970.101562 1336.601562 L 1043 1336.601562 C 1075.300781 1336.601562 1101.300781 1362.601562 1101.300781 1394.898438 C 1101.398438 1427.199219 1075.300781 1453.199219 1043 1453.199219 Z M 1043 1200.800781 L 970.101562 1200.800781 C 937.800781 1200.800781 911.800781 1174.800781 911.800781 1142.5 C 911.800781 1110.199219 937.800781 1084.199219 970.101562 1084.199219 L 1043 1084.199219 C 1075.300781 1084.199219 1101.300781 1110.199219 1101.300781 1142.5 C 1101.300781 1174.800781 1075.300781 1200.800781 1043 1200.800781 "/>
<path fill-rule="evenodd" fill="rgb(100%, 100%, 99.609375%)" fill-opacity="1" d="M 2478.300781 2961 C 2446 2961 2420 2935 2420 2902.699219 L 2420 2830.199219 C 2420 2797.898438 2446 2771.898438 2478.300781 2771.898438 C 2510.601562 2771.898438 2536.601562 2797.898438 2536.601562 2830.199219 L 2536.601562 2902.699219 C 2536.699219 2934.800781 2510.398438 2961 2478.300781 2961 Z M 2225.5 2961 C 2193.199219 2961 2167.199219 2935 2167.199219 2902.699219 L 2167.199219 2830.199219 C 2167.199219 2797.898438 2193.199219 2771.898438 2225.5 2771.898438 C 2257.800781 2771.898438 2283.800781 2797.898438 2283.800781 2830.199219 L 2283.800781 2902.699219 C 2283.898438 2935 2257.800781 2961 2225.5 2961 Z M 1973.199219 2961 C 1940.898438 2961 1914.898438 2935 1914.898438 2902.699219 L 1914.898438 2830.199219 C 1914.898438 2797.898438 1940.898438 2771.898438 1973.199219 2771.898438 C 2005.5 2771.898438 2031.5 2797.898438 2031.5 2830.199219 L 2031.5 2902.699219 C 2031.5 2934.800781 2005.199219 2961 1973.199219 2961 Z M 1720.398438 2961 C 1688.101562 2961 1662.101562 2935 1662.101562 2902.699219 L 1662.101562 2830.199219 C 1662.101562 2797.898438 1688.101562 2771.898438 1720.398438 2771.898438 C 1752.699219 2771.898438 1778.699219 2797.898438 1778.699219 2830.199219 L 1778.699219 2902.699219 C 1778.699219 2935 1752.699219 2961 1720.398438 2961 Z M 1467.601562 2961 C 1435.300781 2961 1409.300781 2935 1409.300781 2902.699219 L 1409.300781 2830.199219 C 1409.300781 2797.898438 1435.300781 2771.898438 1467.601562 2771.898438 C 1499.898438 2771.898438 1525.898438 2797.898438 1525.898438 2830.199219 L 1525.898438 2902.699219 C 1525.898438 2935 1499.898438 2961 1467.601562 2961 Z M 1215.199219 2961 C 1182.898438 2961 1156.898438 2935 1156.898438 2902.699219 L 1156.898438 2830.199219 C 1156.898438 2797.898438 1182.898438 2771.898438 1215.199219 2771.898438 C 1247.5 2771.898438 1273.5 2797.898438 1273.5 2830.199219 L 1273.5 2902.699219 C 1273.5 2935 1247.5 2961 1215.199219 2961 "/>
<path fill-rule="evenodd" fill="rgb(100%, 100%, 99.609375%)" fill-opacity="1" d="M 2730.699219 2961 C 2698.398438 2961 2672.398438 2935 2672.398438 2902.699219 L 2672.398438 2888.5 L 2789 2888.5 L 2789 2902.699219 C 2789 2935 2763 2961 2730.699219 2961 "/>
</svg>
